<svg width="1600" height="260" viewBox="0 0 1600 260" fill="none" xmlns="http://www.w3.org/2000/svg">
<g clip-path="url(#clip0_221_20)">
<rect width="1600" height="260" fill="white"/>
<path d="M379.308 127.652C361.886 136.489 343.795 144.11 327 154.415V258H846C838.773 255.382 835.605 245.171 828.777 240.805C825.9 238.966 828.566 232.374 827.373 229.296C825.325 224.008 824.677 218.243 820.165 214.32C816.545 211.172 812.932 211.806 808.746 210.506C805.731 209.57 805.728 201.981 803.515 201.839C792.311 201.123 784.71 188.111 774.236 188.111C769.681 188.111 764.666 187.326 760.457 189.359C756.321 191.357 754.469 196.323 750.697 198.373C745.218 201.35 730.366 200.059 728.817 192.479C727.038 183.779 719.586 177.791 712.805 174.106C704.165 169.41 694.827 161.903 684.674 161.903C675.773 161.903 663.512 162.415 659.413 152.612C654.619 141.149 645.905 137.999 634.981 135.417C623.801 132.776 612.482 129.455 600.917 129.455C593.805 129.455 586.874 130.703 579.611 130.703C572.071 130.703 563.642 127.173 557.156 123.145C552.865 120.48 548.671 118.174 544.59 115.102C539.242 111.078 535.835 103.624 531.64 98.2543C525.926 90.9399 516.883 93.5963 509.313 88.5475C501.468 83.315 493.514 82.3538 484.371 83.3475C474.909 84.3759 460.334 88.9303 455.091 98.2543C451.763 104.175 447.521 103.246 441.823 103.246C435.362 103.246 429.834 98.2543 423.196 98.2543C412.593 98.2543 404.671 101.591 398.828 111.982C393.895 120.756 387.264 123.617 379.308 127.652Z" fill="url(#paint0_linear_221_20)"/>
<path d="M457.505 287.576C452.082 293.592 446.514 296.881 438 298.959V331H1291V115.046C1283.17 115.046 1273.97 113.535 1266.55 116.006C1258.58 118.658 1249.6 121.837 1240.93 119.915C1230.61 117.625 1218.37 117.935 1207.9 120.258C1197.17 122.637 1186.63 125.734 1177.27 131.709C1169.69 136.542 1159.89 143.972 1150.62 141.447C1137.83 137.964 1126.23 128.624 1112.71 128.624H1082.63H1053.57C1048.42 128.624 1042.81 126.563 1037.85 125.195C1031.38 123.413 1024.18 123.686 1017.52 123.686C1010.91 123.686 1003.38 122.083 1000 115.595C996.728 109.302 999.409 107.262 992.45 108.806C987.374 109.932 979.732 109.374 974.799 107.915C970.371 106.604 971.837 104.73 970.747 100.92C970.531 100.165 950.413 99 947.327 99C938.288 99 928.846 101.905 919.718 102.634C914.54 103.048 915.611 106.066 912.095 108.875C904.993 114.547 902.356 115.046 892.933 115.046C885.516 115.046 883.94 119.097 879.884 124.303C877.52 127.338 875.626 128.385 875.626 132.327C875.626 134.982 874.502 138.555 873.428 140.967C871.996 144.184 873.579 146.101 870.063 148.441C865.478 151.493 861.268 155.662 856.396 158.316C846.538 163.684 838.711 170.672 829.885 177.722C819.767 185.804 809.918 192.618 796.782 195.002C788.854 196.441 780.47 194.127 772.538 195.345C766.199 196.319 760.391 203.633 753.857 205.083C740.58 208.028 724.146 204.113 711.825 201.38C704.174 199.682 698.464 195.277 690.191 195.277C682.674 195.277 674.283 194.402 667.184 197.128C657.472 200.858 646.567 202.652 637.033 206.66C633.206 208.269 628.156 211.323 624.053 211.323C616.576 211.323 608.743 210.568 601.32 211.391C598.12 211.746 592.866 213.118 589.782 214.066C585.871 215.267 582.04 217.074 578.312 218.729C571.775 221.63 564.829 225.533 558.464 228.877C554.719 230.846 552.285 235.918 549.81 239.095C547.311 242.303 543.523 244.532 539.989 246.432C532.806 250.294 523.093 248.673 516.157 253.289C512.862 255.483 509.499 257.985 505.993 259.735C503.39 261.035 501.579 262.998 499.125 264.398C496.325 265.996 493.117 266.054 490.54 267.484C486.079 269.958 478.508 268.578 474.812 271.53C470.377 275.072 462.311 271.708 460.321 278.661C459.278 282.307 460.425 284.337 457.505 287.576Z" fill="url(#paint1_linear_221_20)"/>
<path d="M46 16C27.6642 16 8.22051 2.77311 -6 -8V301H1601V-12C1593.68 -8.34187 1577.3 -4.9765 1569.11 -2C1563.46 0.0560045 1558.37 4.91858 1553 6.11111C1539.11 9.19729 1529.92 26 1515 26C1502.56 26 1486.09 33.0249 1477.56 41.5556C1467.61 51.4996 1452.53 61.435 1440 67.5556C1430.18 72.3549 1410.95 74.7877 1402.44 82.4444C1395.89 88.3449 1389.87 84 1382 84C1373.52 84 1368.48 87.7903 1361.11 92C1344.88 101.273 1326.37 104.706 1308.89 111C1298.64 114.691 1289.23 115.839 1279 118.111C1270.82 119.929 1262.8 123.915 1255.11 126.111C1240.4 130.314 1220.94 135.383 1207 142.889C1192.03 150.949 1172.46 140.02 1158 146.444C1151.52 149.326 1143.1 148 1136 148C1129.28 148 1120.08 147.742 1114 150.444C1106.5 153.779 1097.49 153.291 1090 156.444C1077.68 161.632 1059.14 158 1046 158C1038.05 158 1029.94 157.559 1022 158C1016.16 158.324 1009.3 165.199 1004 167.556C997.058 170.641 989.531 170 982 170C971.24 170 961.645 167.746 951 170.111C943.236 171.837 937.069 176 928.889 176C920.451 176 914.21 172 906 172C898.321 172 890.359 172.04 883.111 174.111C878.398 175.458 871.076 183.155 868 187C865.48 190.15 851.05 188 847 188C830.179 188 816.842 196.591 801 200.111C790.979 202.338 784.159 204 773.556 204C767.964 204 755.703 201.822 751.556 205.556C742.331 213.857 722.577 210 710 210C703.63 210 696.293 208 689 208C682.363 208 678.697 200 673 200C661.202 200 638.661 192.174 630 203C627.171 206.536 614.053 208.246 611.556 204C606.566 195.518 602.961 196.498 594 196C576.678 195.038 564.524 188.24 550 202C542.049 209.532 540.36 202 532 202C523.965 202 518.468 206 510 206C499.505 206 493.442 204.641 484 200.444C475.158 196.515 464.324 198.18 456 193.556C451.875 191.264 449.078 187.259 446 184C442.016 179.782 439.014 180.602 433.889 179C423.684 175.811 409.767 178 399.111 178C389.798 178 380.694 172 371 172C362.651 172 356.161 168.189 348.889 166.111C330.485 160.853 316.151 145.617 295.889 140.889C282.291 137.716 273.595 138.476 263 130C254.482 123.186 247.222 116.929 238 111C228.644 104.986 219.296 105.932 208.444 102.444C199.642 99.6151 187.008 93.9011 180 88C175.246 83.9968 168.239 81.3128 162.889 77.8889C154.841 72.7385 150.575 74.0573 142.444 71.5556C135.906 69.5436 131.393 64.2844 125.111 62C122.434 61.0264 116.483 59.1863 114.444 57.5556C109.887 53.9095 104.597 51.3085 99.8889 47.7778C90.6266 40.8311 77.6884 26.2264 66 24C58.5552 22.5819 53.8865 16 46 16Z" fill="#222222"/>
<path d="M951 74.5264L966 100.579H936L951 74.5264Z" fill="#DA0808"/>
<path d="M951 79.6726L957.111 90.2866H944.889L951 79.6726Z" fill="white"/>
<path d="M949.73 85.1404L955.841 95.7544H943.619L949.73 85.1404Z" fill="#DA0808"/>
<path d="M490.303 62L503.606 85.1053H477L490.303 62Z" fill="#0888DC"/>
<path d="M490.303 66.564L495.723 75.9773H484.883L490.303 66.564Z" fill="white"/>
<path d="M489.177 71.4133L494.597 80.8265H483.757L489.177 71.4133Z" fill="#0888DC"/>
<path d="M770 175L778 188.895H762L770 175Z" fill="#82C606"/>
<path d="M770 177.745L773.259 183.405H766.741L770 177.745Z" fill="white"/>
<path d="M769.323 180.661L772.582 186.322H766.064L769.323 180.661Z" fill="#82C606"/>
</g>
<defs>
<linearGradient id="paint0_linear_221_20" x1="586.5" y1="83" x2="586.5" y2="258" gradientUnits="userSpaceOnUse">
<stop/>
<stop offset="1" stop-color="#666666"/>
</linearGradient>
<linearGradient id="paint1_linear_221_20" x1="864.5" y1="99" x2="864.5" y2="331" gradientUnits="userSpaceOnUse">
<stop offset="0.228448" stop-color="#333333"/>
<stop offset="1" stop-color="#CCCCCC"/>
</linearGradient>
<clipPath id="clip0_221_20">
<rect width="1600" height="260" fill="white"/>
</clipPath>
</defs>
</svg>
