<svg width="1400" height="600" viewBox="0 0 1400 600" fill="none" xmlns="http://www.w3.org/2000/svg">
<g clip-path="url(#clip0_214_22)">
<rect width="1400" height="600" fill="white"/>
<path d="M32.0129 531.687C23.1129 541.567 13.9735 546.969 0 550.381V603H1400V248.352C1387.14 248.352 1372.06 245.87 1359.87 249.928C1346.8 254.283 1332.04 259.504 1317.83 256.347C1300.89 252.587 1280.79 253.096 1263.61 256.91C1246.01 260.818 1228.71 265.904 1213.33 275.717C1200.9 283.653 1184.82 295.855 1169.6 291.708C1148.61 285.988 1129.56 270.649 1107.38 270.649H1058H1010.32C1001.86 270.649 992.661 267.265 984.509 265.018C973.888 262.091 962.079 262.541 951.143 262.541C940.305 262.541 927.945 259.908 922.399 249.252C917.021 238.919 921.422 235.568 910 238.104C901.67 239.953 889.127 239.036 881.031 236.64C873.762 234.488 876.169 231.41 874.38 225.153C874.025 223.914 841.005 222 835.942 222C821.106 222 805.609 226.771 790.628 227.969C782.128 228.648 783.886 233.605 778.116 238.216C766.46 247.532 762.131 248.352 746.667 248.352C734.493 248.352 731.906 255.004 725.25 263.554C721.37 268.538 718.261 270.258 718.261 276.73C718.261 281.091 716.416 286.959 714.654 290.919C712.303 296.203 714.901 299.351 709.13 303.194C701.605 308.206 694.696 315.053 686.699 319.411C670.52 328.227 657.674 339.703 643.188 351.28C626.582 364.553 610.417 375.743 588.857 379.659C575.845 382.022 562.085 378.221 549.066 380.222C538.662 381.821 529.129 393.833 518.406 396.213C496.615 401.051 469.642 394.621 449.42 390.132C436.862 387.344 427.49 380.109 413.913 380.109C401.575 380.109 387.804 378.673 376.151 383.15C360.212 389.275 342.315 392.221 326.667 398.803C320.384 401.446 312.096 406.461 305.362 406.461C293.09 406.461 280.235 405.221 268.051 406.574C262.799 407.157 254.177 409.409 249.114 410.965C242.696 412.939 236.409 415.906 230.29 418.623C219.56 423.387 208.16 429.797 197.713 435.29C191.566 438.522 187.572 446.853 183.51 452.069C179.409 457.338 173.192 460.999 167.391 464.119C155.602 470.461 139.66 467.799 128.277 475.38C122.868 478.983 117.349 483.092 111.594 485.966C107.323 488.1 104.35 491.324 100.322 493.624C95.7264 496.247 90.4618 496.344 86.2319 498.691C78.9109 502.755 66.4843 500.488 60.4187 505.336C53.14 511.153 39.9001 505.629 36.6345 517.047C34.9221 523.035 36.8047 526.368 32.0129 531.687Z" fill="url(#paint0_linear_214_22)"/>
<path d="M61.6297 524.903C41.2293 516.926 21.7374 518.018 0 518.018V600H1439.35V100.255C1435.58 100.7 1431.79 103.54 1428.97 105.807C1424.76 109.189 1413.07 109.022 1407.54 111.804C1392.4 119.415 1382.96 132.156 1367.78 139.788C1358.65 144.379 1346.54 145.128 1339.06 152.225C1332.01 158.921 1322.45 162.465 1314.1 166.661C1303.24 172.125 1294.6 180.355 1282.74 183.763C1269.39 187.597 1250.49 184.806 1236.57 186.206C1226.66 187.202 1212.14 201.728 1207.19 210.192C1201.63 219.689 1183.69 218.277 1174.94 222.186C1167.57 225.48 1160.8 226.294 1153.51 230.625C1144.99 235.689 1135.94 240.288 1126.78 244.173C1106.03 252.985 1088.4 267.607 1070.01 280.153C1058.66 287.9 1049.43 298.76 1038.21 306.138C1026.45 313.867 1012.05 311.616 999.991 316.577C975.572 326.621 951.858 328.269 930.409 343.672C921.57 350.02 909.99 352.323 901.472 359.33C889.026 369.569 872.629 375.459 860.606 386.204C847.769 397.677 822.573 420.074 804.278 420.074H773.463C762.629 420.074 755.738 417.457 745.631 416.187C718.945 412.833 693.009 412.078 665.556 412.078C615.609 412.078 563.457 417.128 515.9 433.066C495.13 440.027 479.207 455.643 463.217 469.934C451.096 480.766 436.022 480.04 420.694 480.04C411.169 480.04 398.944 485.362 389.327 487.036C375.714 489.405 361.948 491.198 348.241 492.921C341.553 493.762 332.936 492.278 327.366 496.586C311.932 508.523 294.904 517.493 279.432 528.901C274.127 532.812 266.561 533.105 261.429 537.118C250.658 545.542 237.388 550 223.767 550C201.773 550 180.097 549.138 158.161 548.112C139.677 547.248 124.674 549.223 107.355 543.004C92.109 537.529 76.7866 530.83 61.6297 524.903Z" fill="black"/>
</g>
<defs>
<linearGradient id="paint0_linear_214_22" x1="700" y1="222" x2="700" y2="603" gradientUnits="userSpaceOnUse">
<stop stop-color="#222222"/>
<stop offset="1" stop-opacity="0.58"/>
</linearGradient>
<clipPath id="clip0_214_22">
<rect width="1400" height="600" fill="white"/>
</clipPath>
</defs>
</svg>
