<svg width="1600" height="260" viewBox="0 0 1600 260" fill="none" xmlns="http://www.w3.org/2000/svg">
<g clip-path="url(#clip0_221_20)">
<rect width="1600" height="260" fill="white"/>
<rect width="1600" height="260" fill="url(#paint0_linear_221_20)"/>
<path d="M361.556 133.778C346.382 140.859 330.627 146.966 316 155.223V238.223H768C761.706 236.125 758.947 227.943 753 224.445C750.495 222.971 752.816 217.689 751.778 215.223C749.994 210.986 749.43 206.367 745.5 203.223C742.348 200.701 739.201 201.209 735.556 200.167C732.93 199.417 732.927 193.336 731 193.223C721.242 192.649 714.622 182.223 705.5 182.223C701.534 182.223 697.166 181.594 693.5 183.223C689.898 184.824 688.285 188.802 685 190.445C680.228 192.831 667.294 191.796 665.944 185.723C664.395 178.751 657.905 173.953 652 171.001C644.475 167.238 636.343 161.223 627.5 161.223C619.748 161.223 609.07 161.633 605.5 153.778C601.325 144.594 593.736 142.069 584.222 140.001C574.486 137.884 564.628 135.223 554.556 135.223C548.362 135.223 542.326 136.223 536 136.223C529.434 136.223 522.093 133.395 516.444 130.167C512.707 128.032 509.055 126.184 505.5 123.723C500.843 120.499 497.876 114.526 494.222 110.223C489.246 104.362 481.37 106.491 474.778 102.445C467.945 98.2524 461.018 97.4822 453.056 98.2784C444.815 99.1025 432.121 102.752 427.556 110.223C424.656 114.967 420.962 114.223 416 114.223C410.373 114.223 405.559 110.223 399.778 110.223C390.544 110.223 383.644 112.896 378.556 121.223C374.259 128.253 368.484 130.545 361.556 133.778Z" fill="url(#paint1_linear_221_20)"/>
<path d="M643.505 248.576C638.082 254.592 632.514 257.881 624 259.959V292H1477V76.0461C1469.17 76.0461 1459.97 74.535 1452.55 77.0061C1444.58 79.6577 1435.6 82.8368 1426.93 80.9148C1416.61 78.6252 1404.37 78.9351 1393.9 81.2577C1383.17 83.6369 1372.63 86.7344 1363.27 92.7094C1355.69 97.5417 1345.89 104.972 1336.62 102.447C1323.83 98.964 1312.23 89.6236 1298.71 89.6236H1268.63H1239.57C1234.42 89.6236 1228.81 87.563 1223.85 86.1949C1217.38 84.4125 1210.18 84.6863 1203.52 84.6863C1196.91 84.6863 1189.38 83.083 1186 76.5947C1182.73 70.3024 1185.41 68.2618 1178.45 69.8059C1173.37 70.9321 1165.73 70.3738 1160.8 68.9145C1156.37 67.6043 1157.84 65.73 1156.75 61.92C1156.53 61.1653 1136.41 60 1133.33 60C1124.29 60 1114.85 62.9053 1105.72 63.6344C1100.54 64.048 1101.61 67.0663 1098.09 69.8745C1090.99 75.5469 1088.36 76.0461 1078.93 76.0461C1071.52 76.0461 1069.94 80.0967 1065.88 85.3035C1063.52 88.3379 1061.63 89.3852 1061.63 93.3265C1061.63 95.9818 1060.5 99.555 1059.43 101.967C1058 105.184 1059.58 107.101 1056.06 109.441C1051.48 112.493 1047.27 116.662 1042.4 119.316C1032.54 124.684 1024.71 131.672 1015.89 138.722C1005.77 146.804 995.918 153.618 982.782 156.002C974.854 157.441 966.47 155.127 958.538 156.345C952.199 157.319 946.391 164.633 939.857 166.083C926.58 169.028 910.146 165.113 897.825 162.38C890.174 160.682 884.464 156.277 876.191 156.277C868.674 156.277 860.283 155.402 853.184 158.128C843.472 161.858 832.567 163.652 823.033 167.66C819.206 169.269 814.156 172.323 810.053 172.323C802.576 172.323 794.743 171.568 787.32 172.391C784.12 172.746 778.866 174.118 775.782 175.066C771.871 176.267 768.04 178.074 764.312 179.729C757.775 182.63 750.829 186.533 744.464 189.877C740.719 191.846 738.285 196.918 735.81 200.095C733.311 203.303 729.523 205.532 725.989 207.432C718.806 211.294 709.093 209.673 702.157 214.289C698.862 216.483 695.499 218.985 691.993 220.735C689.39 222.035 687.579 223.998 685.125 225.398C682.325 226.996 679.117 227.054 676.54 228.484C672.079 230.958 664.508 229.578 660.812 232.53C656.377 236.072 648.311 232.708 646.321 239.661C645.278 243.307 646.425 245.337 643.505 248.576Z" fill="url(#paint2_linear_221_20)"/>
<path d="M46 16C27.6642 16 8.22051 2.77311 -6 -8V301H1601V-12C1593.68 -8.34187 1577.3 -4.9765 1569.11 -2C1563.46 0.0560045 1558.37 4.91858 1553 6.11111C1539.11 9.19729 1529.92 26 1515 26C1502.56 26 1486.09 33.0249 1477.56 41.5556C1467.61 51.4996 1452.53 61.435 1440 67.5556C1430.18 72.3549 1410.95 74.7877 1402.44 82.4444C1395.89 88.3449 1389.87 84 1382 84C1373.52 84 1368.48 87.7903 1361.11 92C1344.88 101.273 1326.37 104.706 1308.89 111C1298.64 114.691 1289.23 115.839 1279 118.111C1270.82 119.929 1262.8 123.915 1255.11 126.111C1240.4 130.314 1220.94 135.383 1207 142.889C1192.03 150.949 1172.46 140.02 1158 146.444C1151.52 149.326 1143.1 148 1136 148C1129.28 148 1120.08 147.742 1114 150.444C1106.5 153.779 1097.49 153.291 1090 156.444C1077.68 161.632 1059.14 158 1046 158C1038.05 158 1029.94 157.559 1022 158C1016.16 158.324 1009.3 165.199 1004 167.556C997.058 170.641 989.531 170 982 170C971.24 170 961.645 167.746 951 170.111C943.236 171.837 937.069 176 928.889 176C920.451 176 914.21 172 906 172C898.321 172 890.359 172.04 883.111 174.111C878.398 175.458 871.076 183.155 868 187C865.48 190.15 851.05 188 847 188C830.179 188 816.842 196.591 801 200.111C790.979 202.338 784.159 204 773.556 204C767.964 204 755.703 201.822 751.556 205.556C742.331 213.857 722.577 210 710 210C703.63 210 696.293 208 689 208C682.363 208 678.697 200 673 200C661.202 200 638.661 192.174 630 203C627.171 206.536 614.053 208.246 611.556 204C606.566 195.518 602.961 196.498 594 196C576.678 195.038 564.524 188.24 550 202C542.049 209.532 540.36 202 532 202C523.965 202 518.468 206 510 206C499.505 206 493.442 204.641 484 200.444C475.158 196.515 464.324 198.18 456 193.556C451.875 191.264 449.078 187.259 446 184C442.016 179.782 439.014 180.602 433.889 179C423.684 175.811 409.767 178 399.111 178C389.798 178 380.694 172 371 172C362.651 172 356.161 168.189 348.889 166.111C330.485 160.853 316.151 145.617 295.889 140.889C282.291 137.716 273.595 138.476 263 130C254.482 123.186 247.222 116.929 238 111C228.644 104.986 219.296 105.932 208.444 102.444C199.642 99.6151 187.008 93.9011 180 88C175.246 83.9968 168.239 81.3128 162.889 77.8889C154.841 72.7385 150.575 74.0573 142.444 71.5556C135.906 69.5436 131.393 64.2844 125.111 62C122.434 61.0264 116.483 59.1863 114.444 57.5556C109.887 53.9095 104.597 51.3085 99.8889 47.7778C90.6266 40.8311 77.6884 26.2264 66 24C58.5552 22.5819 53.8865 16 46 16Z" fill="#222222"/>
<path d="M1135.62 36L1150.24 61.3947H1121L1135.62 36Z" fill="#82C606"/>
<path d="M1135.62 41.0162L1141.58 51.3622H1129.66L1135.62 41.0162Z" fill="white"/>
<path d="M1134.38 46.346L1140.34 56.692H1128.43L1134.38 46.346Z" fill="#82C606"/>
<path d="M868 138.289L879 157.395H857L868 138.289Z" fill="#DA0808"/>
<path d="M868 142.063L872.481 149.847H863.519L868 142.063Z" fill="white"/>
<path d="M867.069 146.073L871.55 153.857H862.587L867.069 146.073Z" fill="#DA0808"/>
<path d="M458.303 78L471.606 101.105H445L458.303 78Z" fill="#0888DC"/>
<path d="M458.303 82.564L463.723 91.9773H452.883L458.303 82.564Z" fill="white"/>
<path d="M457.177 87.4133L462.597 96.8265H451.757L457.177 87.4133Z" fill="#0888DC"/>
<path d="M703 169L711 182.895H695L703 169Z" fill="#E62020"/>
<path d="M703 171.745L706.259 177.405H699.741L703 171.745Z" fill="white"/>
<path d="M702.323 174.661L705.582 180.322H699.064L702.323 174.661Z" fill="#E62020"/>
</g>
<rect x="0.5" y="0.5" width="1599" height="259" stroke="black"/>
<defs>
<linearGradient id="paint0_linear_221_20" x1="800" y1="0" x2="800" y2="260" gradientUnits="userSpaceOnUse">
<stop offset="0.211538" stop-color="white" stop-opacity="0.32"/>
<stop offset="0.416667" stop-color="#F9E25C" stop-opacity="0.34"/>
<stop offset="0.541667" stop-color="#F5D201" stop-opacity="0.63"/>
<stop offset="0.761538" stop-color="#F1A209"/>
</linearGradient>
<linearGradient id="paint1_linear_221_20" x1="542" y1="98" x2="542" y2="238.223" gradientUnits="userSpaceOnUse">
<stop/>
<stop offset="1" stop-color="#666666"/>
</linearGradient>
<linearGradient id="paint2_linear_221_20" x1="1050.5" y1="60" x2="1050.5" y2="292" gradientUnits="userSpaceOnUse">
<stop offset="0.228448" stop-color="#333333"/>
<stop offset="1" stop-color="#CCCCCC"/>
</linearGradient>
<clipPath id="clip0_221_20">
<rect width="1600" height="260" fill="white"/>
</clipPath>
</defs>
</svg>
