<svg viewBox="0 0 24 24" fill="none" xmlns="http://www.w3.org/2000/svg">
<path d="M1.53975 12.9381C0.668383 12.6162 0.668386 11.3838 1.53975 11.0619L3.13952 10.4711C3.78686 10.232 4.00319 9.42458 3.56213 8.89386L2.47213 7.58226C1.87842 6.86785 2.49464 5.80053 3.41019 5.95749L5.09107 6.24566C5.77122 6.36227 6.36227 5.77122 6.24566 5.09107L5.95749 3.41019C5.80053 2.49464 6.86785 1.87842 7.58226 2.47213L8.89386 3.56213C9.42459 4.00319 10.232 3.78685 10.4711 3.13952L11.0619 1.53975C11.3838 0.668383 12.6162 0.668386 12.9381 1.53975L13.5289 3.13952C13.768 3.78686 14.5754 4.00319 15.1061 3.56213L16.4177 2.47213C17.1321 1.87842 18.1995 2.49464 18.0425 3.41019L17.7543 5.09107C17.6377 5.77122 18.2288 6.36227 18.9089 6.24566L20.5898 5.95749C21.5054 5.80053 22.1216 6.86785 21.5279 7.58226L20.4379 8.89386C19.9968 9.42459 20.2131 10.232 20.8605 10.4711L22.4602 11.0619C23.3316 11.3838 23.3316 12.6162 22.4602 12.9381L20.8605 13.5289C20.2131 13.768 19.9968 14.5754 20.4379 15.1061L21.5279 16.4177C22.1216 17.1321 21.5054 18.1995 20.5898 18.0425L18.9089 17.7543C18.2288 17.6377 17.6377 18.2288 17.7543 18.9089L18.0425 20.5898C18.1995 21.5054 17.1321 22.1216 16.4177 21.5279L15.1061 20.4379C14.5754 19.9968 13.768 20.2131 13.5289 20.8605L12.9381 22.4602C12.6162 23.3316 11.3838 23.3316 11.0619 22.4602L10.4711 20.8605C10.232 20.2131 9.42458 19.9968 8.89386 20.4379L7.58226 21.5279C6.86785 22.1216 5.80053 21.5054 5.95749 20.5898L6.24566 18.9089C6.36227 18.2288 5.77122 17.6377 5.09107 17.7543L3.41019 18.0425C2.49464 18.1995 1.87842 17.1321 2.47213 16.4177L3.56213 15.1061C4.00319 14.5754 3.78685 13.768 3.13952 13.5289L1.53975 12.9381Z" />
</svg>
